<mxfile host="app.diagrams.net" modified="2023-09-30T13:08:02.022Z" agent="Mozilla/5.0 (Windows NT 10.0; Win64; x64) AppleWebKit/537.36 (KHTML, like Gecko) Chrome/117.0.0.0 Safari/537.36" etag="FuI0NUDREoNVGJr-_8YU" version="22.0.0" type="github">
  <diagram name="Страница — 1" id="YAE8KFhmtYzrj9OOCtWR">
    <mxGraphModel dx="1434" dy="758" grid="1" gridSize="10" guides="1" tooltips="1" connect="1" arrows="1" fold="1" page="1" pageScale="1" pageWidth="827" pageHeight="1169" math="0" shadow="0">
      <root>
        <mxCell id="0" />
        <mxCell id="1" parent="0" />
        <mxCell id="EDfVO8I8NlYFFupHzrWh-4" value="User" style="swimlane;fontStyle=1;align=center;verticalAlign=top;childLayout=stackLayout;horizontal=1;startSize=26;horizontalStack=0;resizeParent=1;resizeParentMax=0;resizeLast=0;collapsible=1;marginBottom=0;whiteSpace=wrap;html=1;" vertex="1" parent="1">
          <mxGeometry x="110" y="370" width="160" height="260" as="geometry" />
        </mxCell>
        <mxCell id="EDfVO8I8NlYFFupHzrWh-5" value="- id : long&lt;br&gt;- fio : String&lt;br&gt;- actualCabinet : Cabinet&lt;br&gt;- login : String&lt;br&gt;- password : String" style="text;strokeColor=none;fillColor=none;align=left;verticalAlign=top;spacingLeft=4;spacingRight=4;overflow=hidden;rotatable=0;points=[[0,0.5],[1,0.5]];portConstraint=eastwest;whiteSpace=wrap;html=1;" vertex="1" parent="EDfVO8I8NlYFFupHzrWh-4">
          <mxGeometry y="26" width="160" height="94" as="geometry" />
        </mxCell>
        <mxCell id="EDfVO8I8NlYFFupHzrWh-6" value="" style="line;strokeWidth=1;fillColor=none;align=left;verticalAlign=middle;spacingTop=-1;spacingLeft=3;spacingRight=3;rotatable=0;labelPosition=right;points=[];portConstraint=eastwest;strokeColor=inherit;" vertex="1" parent="EDfVO8I8NlYFFupHzrWh-4">
          <mxGeometry y="120" width="160" height="8" as="geometry" />
        </mxCell>
        <mxCell id="EDfVO8I8NlYFFupHzrWh-7" value="+ get()...&lt;br&gt;+ set()...&lt;br&gt;+ mainLightOn()&lt;br&gt;+ secondLightOn()&lt;br&gt;+ LCDOn()&lt;br&gt;+ mainLightOff()&lt;br style=&quot;border-color: var(--border-color);&quot;&gt;+ secondLightOff()&lt;br style=&quot;border-color: var(--border-color);&quot;&gt;+ LCDOff()" style="text;strokeColor=none;fillColor=none;align=left;verticalAlign=top;spacingLeft=4;spacingRight=4;overflow=hidden;rotatable=0;points=[[0,0.5],[1,0.5]];portConstraint=eastwest;whiteSpace=wrap;html=1;" vertex="1" parent="EDfVO8I8NlYFFupHzrWh-4">
          <mxGeometry y="128" width="160" height="132" as="geometry" />
        </mxCell>
      </root>
    </mxGraphModel>
  </diagram>
</mxfile>
